new Crispy Bold-Regular.ufo
<glyph name="exclam" format="2">
  <advance width="491"/>
  <unicode hex="0021"/>
  <outline>
    <contour>
      <point x="80" y="359" type="line" identifier="1m237t4hyw"/>
      <point x="380" y="359" type="line" identifier="S4rO5KuHiL"/>
      <point x="415" y="428" type="line"/>
      <point x="415" y="1600" type="line" identifier="zfocDyDTCM"/>
      <point x="115" y="1600" type="line" identifier="v7N4yg5XNk"/>
      <point x="80" y="1529" type="line"/>
    </contour>
    <component base="period" xOffset="30"/>
  </outline>
</glyph>
<glyph name="comma" format="2">
  <advance width="671"/>
  <unicode hex="002C"/>
  <outline>
    <contour>
      <point x="400" y="-328" type="line"/>
      <point x="522" y="0" type="line"/>
      <point x="522" y="259" type="line"/>
      <point x="240" y="259" type="line"/>
      <point x="197" y="186" type="line"/>
      <point x="197" y="0" type="line"/>
      <point x="362" y="0" type="line"/>
      <point x="362" y="-328" type="line"/>
    </contour>
  </outline>
</glyph>
<glyph name="period" format="2">
  <advance width="566"/>
  <unicode hex="002E"/>
  <outline>
    <contour>
      <point x="376" y="0" type="line" identifier="1m237t4hyw"/>
      <point x="416" y="64" type="line" identifier="v7N4yg5XNk"/>
      <point x="416" y="286" type="line"/>
      <point x="119" y="286" type="line" identifier="zfocDyDTCM"/>
      <point x="79" y="222" type="line"/>
      <point x="79" y="0" type="line" identifier="S4rO5KuHiL"/>
    </contour>
  </outline>
</glyph>
<glyph name="one" format="2">
  <advance width="2157"/>
  <unicode hex="0031"/>
  <outline>
    <contour>
      <point x="152" y="0" type="line"/>
      <point x="2007" y="0" type="line" identifier="CURJAw79Zl"/>
      <point x="2007" y="263" type="line" identifier="0DUCJo8xIi"/>
      <point x="1249" y="263" type="line" identifier="5nmxQXofSG"/>
      <point x="1249" y="1600" type="line" identifier="4rjIeWbSbx"/>
      <point x="169" y="1600" type="line"/>
      <point x="169" y="1337" type="line"/>
      <point x="924" y="1337" type="line"/>
      <point x="924" y="263" type="line"/>
      <point x="152" y="263" type="line"/>
    </contour>
  </outline>
</glyph>
<glyph name="two" format="2">
  <advance width="2349"/>
  <unicode hex="0032"/>
  <outline>
    <contour>
      <point x="150" y="0" type="line"/>
      <point x="2197" y="0" type="line" identifier="pzdvPTirLJ"/>
      <point x="2197" y="473" type="line"/>
      <point x="1873" y="473" type="line"/>
      <point x="1873" y="254" type="line"/>
      <point x="480" y="254" type="line"/>
      <point x="480" y="676" type="line"/>
      <point x="2192" y="676" type="line" identifier="yyb1NCCI5w"/>
      <point x="2192" y="1600" type="line" identifier="5FogYRSgkk"/>
      <point x="155" y="1600" type="line" identifier="svlFvrau4c"/>
      <point x="155" y="1071" type="line" identifier="LQ9fBsTy9K"/>
      <point x="480" y="1071" type="line"/>
      <point x="480" y="1346" type="line"/>
      <point x="1867" y="1346" type="line"/>
      <point x="1867" y="908" type="line"/>
      <point x="150" y="908" type="line" identifier="teVKnpBcVb"/>
    </contour>
  </outline>
</glyph>
<glyph name="three" format="2">
  <advance width="2394"/>
  <unicode hex="0033"/>
  <outline>
    <contour>
      <point x="150" y="0" type="line" identifier="O9abUc1nmN"/>
      <point x="2244" y="0" type="line" identifier="kMJYMTfXCq"/>
      <point x="2244" y="913" type="line" identifier="su2XmdS8e8"/>
      <point x="2098" y="913" type="line" identifier="JQaOzDQqlF"/>
      <point x="2098" y="1600" type="line" identifier="xg8x2Ki40p"/>
      <point x="179" y="1600" type="line" identifier="pE1XSRiy68"/>
      <point x="179" y="1047" type="line" identifier="5lNstGRcSF"/>
      <point x="504" y="1047" type="line" identifier="AcE5xKDZfE"/>
      <point x="504" y="1346" type="line" identifier="7ogBYufWpl"/>
      <point x="1773" y="1346" type="line" identifier="RHLvSX2Jv6"/>
      <point x="1773" y="912" type="line" identifier="iic1IBkDqp"/>
      <point x="620" y="913" type="line" identifier="lRLJEhXMlO"/>
      <point x="620" y="671" type="line" identifier="8aKgEELrVU"/>
      <point x="1919" y="671" type="line" identifier="Dm8zjmbhNr"/>
      <point x="1919" y="254" type="line" identifier="xv9CFHiFgB"/>
      <point x="475" y="254" type="line" identifier="YajKQV3MHP"/>
      <point x="475" y="553" type="line" identifier="36SchVkwze"/>
      <point x="150" y="553" type="line" identifier="tVui9PiOjA"/>
    </contour>
  </outline>
</glyph>
<glyph name="four" format="2">
  <advance width="2403"/>
  <unicode hex="0034"/>
  <outline>
    <contour>
      <point x="1739" y="0" type="line"/>
      <point x="2064" y="0" type="line"/>
      <point x="2064" y="652" type="line"/>
      <point x="2253" y="652" type="line"/>
      <point x="2253" y="915" type="line"/>
      <point x="2064" y="915" type="line"/>
      <point x="2064" y="1600" type="line"/>
      <point x="1739" y="1600" type="line"/>
      <point x="1739" y="915" type="line"/>
      <point x="474" y="915" type="line"/>
      <point x="474" y="1023" type="line"/>
      <point x="475" y="1604" type="line"/>
      <point x="150" y="1604" type="line"/>
      <point x="150" y="1022" type="line"/>
      <point x="150" y="652" type="line"/>
      <point x="1739" y="652" type="line"/>
    </contour>
  </outline>
</glyph>
<glyph name="seven" format="2">
  <advance width="2373"/>
  <unicode hex="0037"/>
  <outline>
    <contour>
      <point x="955" y="0" type="line"/>
      <point x="1294" y="0" type="line" identifier="PiPrv7Kcoy"/>
      <point x="2223" y="1173" type="line" identifier="PkvwNC9Tx1"/>
      <point x="2223" y="1600" type="line" identifier="tgqM27bPOm"/>
      <point x="150" y="1600" type="line" identifier="36ml4xRICt"/>
      <point x="150" y="986" type="line" identifier="aaDZsh5Mah"/>
      <point x="475" y="986" type="line"/>
      <point x="475" y="1337" type="line"/>
      <point x="1856" y="1337" type="line"/>
      <point x="1856" y="1195" type="line"/>
    </contour>
  </outline>
</glyph>
<glyph name="eight" format="2">
  <advance width="2440"/>
  <unicode hex="0038"/>
  <outline>
    <contour>
      <point x="1788" y="673" type="line"/>
      <point x="1966" y="549" type="line"/>
      <point x="1966" y="254" type="line"/>
      <point x="475" y="254" type="line"/>
      <point x="475" y="546" type="line"/>
      <point x="653" y="673" type="line"/>
    </contour>
    <contour>
      <point x="2095" y="794" type="line"/>
      <point x="2095" y="806" type="line"/>
      <point x="2287" y="962" type="line"/>
      <point x="2287" y="1600" type="line"/>
      <point x="153" y="1600" type="line"/>
      <point x="153" y="962" type="line"/>
      <point x="347" y="806" type="line"/>
      <point x="347" y="794" type="line"/>
      <point x="150" y="634" type="line"/>
      <point x="150" y="0" type="line"/>
      <point x="2291" y="0" type="line"/>
      <point x="2291" y="634" type="line"/>
    </contour>
    <contour>
      <point x="653" y="927" type="line"/>
      <point x="478" y="1048" type="line"/>
      <point x="478" y="1346" type="line"/>
      <point x="1963" y="1346" type="line"/>
      <point x="1962" y="1048" type="line"/>
      <point x="1788" y="927" type="line"/>
    </contour>
  </outline>
</glyph>
<glyph name="nine" format="2">
  <advance width="2400"/>
  <unicode hex="0039"/>
  <outline>
    <contour>
      <point x="2250" y="1600" type="line" identifier="uiw6aBUf4P"/>
      <point x="150" y="1600" type="line" identifier="jtYkxiUX6G"/>
      <point x="150" y="691" type="line" identifier="2G5L37c87I"/>
      <point x="1926" y="691" type="line"/>
      <point x="1926" y="256" type="line"/>
      <point x="476" y="256" type="line"/>
      <point x="476" y="492" type="line"/>
      <point x="151" y="492" type="line" identifier="Wuidbv6mUe"/>
      <point x="151" y="0" type="line" identifier="oGvEEuxnYv"/>
      <point x="2250" y="0" type="line" identifier="xR3pEHbMJx"/>
    </contour>
    <contour>
      <point x="475" y="940" type="line"/>
      <point x="475" y="1344" type="line"/>
      <point x="1926" y="1344" type="line"/>
      <point x="1926" y="940" type="line"/>
    </contour>
  </outline>
</glyph>
<glyph name="A" format="2">
  <advance width="2416"/>
  <unicode hex="0041"/>
  <outline>
    <contour>
      <point x="150" y="0" type="line" smooth="yes" identifier="jFq8ta4UUc"/>
      <point x="475" y="0" type="line" smooth="yes" identifier="dQz4RxYhG4"/>
      <point x="475" y="618" type="line" smooth="yes" identifier="viYRWe5UN7"/>
      <point x="1882" y="618" type="line" smooth="yes" identifier="QVexAlbAcl"/>
      <point x="1882" y="0" type="line" smooth="yes" identifier="ZgsCdxNJRW"/>
      <point x="2206" y="0" type="line" smooth="yes" identifier="kpn4Kw9J0C"/>
      <point x="2206" y="1600" type="line" smooth="yes" identifier="OBZ5Ayed7M"/>
      <point x="432" y="1600" type="line" smooth="yes" identifier="iDT0uyhKrn"/>
      <point x="150" y="1157" type="line" smooth="yes" identifier="dqVr87m3uJ"/>
    </contour>
    <contour>
      <point x="475" y="883" type="line" smooth="yes" identifier="IIRC9Wy7kQ"/>
      <point x="475" y="1113" type="line" smooth="yes" identifier="VufvPdJ075"/>
      <point x="622" y="1337" type="line" smooth="yes" identifier="FsYtJ2vFnp"/>
      <point x="1882" y="1337" type="line" smooth="yes" identifier="tUsW8L7b0y"/>
      <point x="1882" y="883" type="line" smooth="yes" identifier="eTe9B4y76W"/>
    </contour>
  </outline>
</glyph>
<glyph name="B" format="2">
  <advance width="2457"/>
  <unicode hex="0042"/>
  <outline>
    <contour>
      <point x="210" y="0" type="line" identifier="hvY9r8RmLr"/>
      <point x="2039" y="0" type="line" identifier="9QFpw7nfq7"/>
      <point x="2307" y="414" type="line"/>
      <point x="2307" y="924" type="line" identifier="543PerILpr"/>
      <point x="2012" y="924" type="line" identifier="zhomauHW30"/>
      <point x="2122" y="1100" type="line"/>
      <point x="2122" y="1600" type="line" identifier="FaP204GrdB"/>
      <point x="210" y="1600" type="line" identifier="JEev70GAj6"/>
    </contour>
    <contour>
      <point x="535" y="256" type="line" identifier="jaMSiLrCua"/>
      <point x="535" y="674" type="line" identifier="XSrxNd2axx"/>
      <point x="1983" y="674" type="line" identifier="lsRGatjQja"/>
      <point x="1983" y="466" type="line"/>
      <point x="1822" y="256" type="line" identifier="xhlDJ3CjD5"/>
    </contour>
    <contour>
      <point x="535" y="923" type="line" identifier="By7dfMihfe"/>
      <point x="535" y="1344" type="line" identifier="1p5hKrurVy"/>
      <point x="1814" y="1344" type="line" identifier="Qby8aMtF2X"/>
      <point x="1814" y="1085" type="line"/>
      <point x="1706" y="923" type="line" identifier="xpxyvIzPoc"/>
    </contour>
  </outline>
</glyph>
<glyph name="C" format="2">
  <advance width="2355"/>
  <unicode hex="0043"/>
  <outline>
    <contour>
      <point x="150" y="0" type="line" identifier="7lPhzTnk2Z"/>
      <point x="2144" y="0" type="line" identifier="qJVLZGnkwh"/>
      <point x="2144" y="542" type="line" identifier="nDnDHzAMXL"/>
      <point x="1819" y="542" type="line" identifier="QX1V08aTu0"/>
      <point x="1819" y="263" type="line" identifier="Y750RHTvDj"/>
      <point x="474" y="263" type="line" identifier="L2LsGnXiZ2"/>
      <point x="474" y="1103" type="line" identifier="sUWsr03vF4"/>
      <point x="628" y="1337" type="line" identifier="dbOUe6OhxL"/>
      <point x="1819" y="1337" type="line" identifier="5BjRbcud80"/>
      <point x="1819" y="1009" type="line" identifier="fNVDqwQo2o"/>
      <point x="2144" y="1009" type="line" identifier="wLqQQx7QVN"/>
      <point x="2144" y="1600" type="line" identifier="9eJelv8BOw"/>
      <point x="418" y="1600" type="line" identifier="lfZev3ICaC"/>
      <point x="150" y="1182" type="line" identifier="V1EWIdPahq"/>
    </contour>
  </outline>
</glyph>
<glyph name="D" format="2">
  <advance width="2458"/>
  <unicode hex="0044"/>
  <outline>
    <contour>
      <point x="210" y="0" type="line" identifier="IF8msvcgce"/>
      <point x="2037" y="0" type="line" identifier="ydeACnPZN4"/>
      <point x="2308" y="494" type="line" identifier="wIy2omw5Da"/>
      <point x="2308" y="1600" type="line" identifier="gh4oopoKIn"/>
      <point x="210" y="1600" type="line" identifier="hTYdJwlqIh"/>
    </contour>
    <contour>
      <point x="535" y="263" type="line" identifier="YShvMHvurg"/>
      <point x="535" y="1337" type="line" identifier="OGdfzPVlic"/>
      <point x="1983" y="1337" type="line" identifier="4w8cXO1HlF"/>
      <point x="1983" y="552" type="line" identifier="5OFemp6E2Y"/>
      <point x="1817" y="263" type="line" identifier="DiLdvAK6bW"/>
    </contour>
  </outline>
</glyph>
<glyph name="K" format="2">
  <advance width="2408"/>
  <unicode hex="004B"/>
  <outline>
    <contour>
      <point x="535" y="0" type="line" identifier="wmNm7XZsaF"/>
      <point x="535" y="657" type="line" identifier="O22liaP9Qk"/>
      <point x="1931" y="657" type="line" identifier="DzXo67YEfw"/>
      <point x="1931" y="0" type="line" identifier="aKpYWD78l2"/>
      <point x="2256" y="0" type="line" identifier="ChS7KlqGi6"/>
      <point x="2256" y="877" type="line" identifier="sWLgkU8Vey"/>
      <point x="2001" y="877" type="line" identifier="Of0iQc0wBG"/>
      <point x="2230" y="1600" type="line" identifier="dMJ1ywOKQQ"/>
      <point x="1904" y="1600" type="line" identifier="08OWjR2YBJ"/>
      <point x="1697" y="922" type="line" identifier="g4YLdZEoM3"/>
      <point x="535" y="922" type="line" identifier="uZuki3Isec"/>
      <point x="535" y="1600" type="line" identifier="nRfcNgqJ4H"/>
      <point x="210" y="1600" type="line" identifier="3XJlWt89ad"/>
      <point x="210" y="0" type="line" identifier="wdbO8kCovY"/>
    </contour>
  </outline>
</glyph>
<glyph name="M" format="2">
  <advance width="3080"/>
  <unicode hex="004D"/>
  <outline>
    <contour>
      <point x="1268" y="314" type="line" identifier="0Dn4Xpf57M"/>
      <point x="649" y="1351" type="line"/>
      <point x="506" y="1352" type="line"/>
      <point x="506" y="0" type="line"/>
      <point x="210" y="0" type="line"/>
      <point x="210" y="1600" type="line"/>
      <point x="869" y="1600" type="line"/>
      <point x="1448" y="573" type="line"/>
      <point x="1633" y="573" type="line" identifier="9aKZPM0HPh"/>
      <point x="2214" y="1600" type="line"/>
      <point x="2870" y="1600" type="line"/>
      <point x="2870" y="0" type="line"/>
      <point x="2574" y="0" type="line"/>
      <point x="2574" y="1352" type="line"/>
      <point x="2431" y="1352" type="line"/>
      <point x="1811" y="314" type="line" identifier="spdoeeCFft"/>
    </contour>
  </outline>
</glyph>
<glyph name="S" format="2">
  <advance width="2243"/>
  <unicode hex="0053"/>
  <outline>
    <contour>
      <point x="151" y="0" type="line" identifier="09VlJ0BjUX"/>
      <point x="1825" y="0" type="line" identifier="EagWihqFM8"/>
      <point x="2093" y="408" type="line"/>
      <point x="2093" y="930" type="line" identifier="KfNuQA7eZe"/>
      <point x="474" y="930" type="line" identifier="At364YZFEy"/>
      <point x="474" y="1123" type="line"/>
      <point x="632" y="1352" type="line"/>
      <point x="1764" y="1352" type="line" identifier="3ZUkG35meB"/>
      <point x="1764" y="1111" type="line" identifier="DTOJhFIl15"/>
      <point x="2089" y="1111" type="line" identifier="9KDcrfQ5Ui"/>
      <point x="2089" y="1600" type="line" identifier="SaF9ojRFrW"/>
      <point x="419" y="1600" type="line"/>
      <point x="152" y="1176" type="line"/>
      <point x="152" y="672" type="line" identifier="3sQ8t8BZ6b"/>
      <point x="1768" y="672" type="line" identifier="yiV6OCBLHg"/>
      <point x="1768" y="460" type="line"/>
      <point x="1607" y="251" type="line" identifier="9kdl9SYsn8"/>
      <point x="475" y="251" type="line" identifier="yZDWuX8LLe"/>
      <point x="475" y="496" type="line" identifier="jYb9001DTm"/>
      <point x="151" y="496" type="line" identifier="ho4DrS0rdW"/>
    </contour>
  </outline>
</glyph>
<glyph name="W" format="2">
  <advance width="3080"/>
  <unicode hex="0057"/>
  <outline>
    <contour>
      <point x="1268" y="1287" type="line" identifier="0Dn4Xpf57M"/>
      <point x="649" y="249" type="line"/>
      <point x="506" y="249" type="line"/>
      <point x="506" y="1600" type="line"/>
      <point x="210" y="1600" type="line"/>
      <point x="210" y="0" type="line"/>
      <point x="869" y="0" type="line"/>
      <point x="1448" y="1027" type="line"/>
      <point x="1633" y="1028" type="line" identifier="9aKZPM0HPh"/>
      <point x="2214" y="0" type="line"/>
      <point x="2870" y="0" type="line"/>
      <point x="2870" y="1600" type="line"/>
      <point x="2574" y="1600" type="line"/>
      <point x="2574" y="249" type="line"/>
      <point x="2431" y="249" type="line"/>
      <point x="1811" y="1287" type="line" identifier="spdoeeCFft"/>
    </contour>
  </outline>
</glyph>
<glyph name="X" format="2">
  <advance width="2355"/>
  <unicode hex="0058"/>
  <outline>
    <contour>
      <point x="150" y="0" type="line"/>
      <point x="475" y="0" type="line"/>
      <point x="475" y="663" type="line"/>
      <point x="660" y="663" type="line"/>
      <point x="1665" y="663" type="line"/>
      <point x="1880" y="561" type="line"/>
      <point x="1880" y="0" type="line"/>
      <point x="2205" y="0" type="line"/>
      <point x="2205" y="626" type="line"/>
      <point x="1919" y="770" type="line"/>
      <point x="1919" y="804" type="line"/>
      <point x="2202" y="804" type="line"/>
      <point x="2202" y="1600" type="line"/>
      <point x="1863" y="1600" type="line"/>
      <point x="1863" y="927" type="line"/>
      <point x="1707" y="927" type="line"/>
      <point x="680" y="927" type="line"/>
      <point x="478" y="1023" type="line"/>
      <point x="478" y="1600" type="line"/>
      <point x="154" y="1600" type="line"/>
      <point x="154" y="962" type="line"/>
      <point x="422" y="822" type="line"/>
      <point x="422" y="788" type="line"/>
      <point x="150" y="788" type="line"/>
    </contour>
  </outline>
</glyph>
<glyph name="B.skinnymiddle" format="2">
  <advance width="2457"/>
  <outline>
    <contour>
      <point x="210" y="0" type="line" identifier="hvY9r8RmLr"/>
      <point x="2039" y="0" type="line" identifier="9QFpw7nfq7"/>
      <point x="2307" y="414" type="line"/>
      <point x="2307" y="914" type="line" identifier="543PerILpr"/>
      <point x="1977" y="914" type="line" identifier="zhomauHW30"/>
      <point x="2122" y="1100" type="line"/>
      <point x="2122" y="1600" type="line" identifier="FaP204GrdB"/>
      <point x="210" y="1600" type="line" identifier="JEev70GAj6"/>
    </contour>
    <contour>
      <point x="535" y="256" type="line" identifier="jaMSiLrCua"/>
      <point x="535" y="690" type="line" identifier="XSrxNd2axx"/>
      <point x="1983" y="690" type="line" identifier="lsRGatjQja"/>
      <point x="1983" y="466" type="line"/>
      <point x="1822" y="256" type="line" identifier="xhlDJ3CjD5"/>
    </contour>
    <contour>
      <point x="535" y="907" type="line" identifier="By7dfMihfe"/>
      <point x="535" y="1344" type="line" identifier="1p5hKrurVy"/>
      <point x="1814" y="1344" type="line" identifier="Qby8aMtF2X"/>
      <point x="1814" y="1085" type="line"/>
      <point x="1671" y="907" type="line" identifier="xpxyvIzPoc"/>
    </contour>
  </outline>
</glyph>
<glyph name="C.wide" format="2">
  <advance width="2296"/>
  <outline>
    <contour>
      <point x="161" y="0" type="line" identifier="7lPhzTnk2Z"/>
      <point x="2146" y="0" type="line" identifier="qJVLZGnkwh"/>
      <point x="2146" y="263" type="line" identifier="Y750RHTvDj"/>
      <point x="486" y="263" type="line" identifier="L2LsGnXiZ2"/>
      <point x="486" y="1052" type="line" identifier="sUWsr03vF4"/>
      <point x="643" y="1337" type="line" identifier="dbOUe6OhxL"/>
      <point x="2145" y="1337" type="line" identifier="5BjRbcud80"/>
      <point x="2145" y="1600" type="line" identifier="9eJelv8BOw"/>
      <point x="410" y="1600" type="line" identifier="lfZev3ICaC"/>
      <point x="161" y="1109" type="line" identifier="V1EWIdPahq"/>
    </contour>
  </outline>
</glyph>
<glyph name="E.wide" format="2">
  <advance width="2265"/>
  <outline>
    <contour>
      <point x="210" y="0" type="line" identifier="fZynkQ4XHB"/>
      <point x="2054" y="0" type="line" identifier="FAQNpgUPxV"/>
      <point x="2054" y="250" type="line" identifier="5cgTYOhATF"/>
      <point x="535" y="250" type="line" identifier="bWs42DaCgU"/>
      <point x="535" y="681" type="line" identifier="VtD2aADJmn"/>
      <point x="1886" y="681" type="line" identifier="PpbsFdHAnS"/>
      <point x="1886" y="919" type="line" identifier="8WuC5p8Ax5"/>
      <point x="535" y="919" type="line" identifier="m39IWn9ntA"/>
      <point x="535" y="1353" type="line" identifier="gQ21I4SHQg"/>
      <point x="2050" y="1353" type="line" identifier="eqNb2VTwYs"/>
      <point x="2050" y="1600" type="line" identifier="qYRmo14Il5"/>
      <point x="210" y="1600" type="line" identifier="HmJIcnLWfC"/>
    </contour>
  </outline>
</glyph>
<glyph name="E.wideskinny" format="2">
  <advance width="2256"/>
  <outline>
    <contour>
      <point x="222" y="0" type="line" identifier="fZynkQ4XHB"/>
      <point x="2045" y="0" type="line" identifier="FAQNpgUPxV"/>
      <point x="2045" y="250" type="line" identifier="5cgTYOhATF"/>
      <point x="546" y="250" type="line" identifier="bWs42DaCgU"/>
      <point x="546" y="692" type="line" identifier="VtD2aADJmn"/>
      <point x="1877" y="692" type="line" identifier="PpbsFdHAnS"/>
      <point x="1877" y="909" type="line" identifier="8WuC5p8Ax5"/>
      <point x="546" y="909" type="line" identifier="m39IWn9ntA"/>
      <point x="546" y="1353" type="line" identifier="gQ21I4SHQg"/>
      <point x="2041" y="1353" type="line" identifier="eqNb2VTwYs"/>
      <point x="2041" y="1600" type="line" identifier="qYRmo14Il5"/>
      <point x="222" y="1600" type="line" identifier="HmJIcnLWfC"/>
    </contour>
  </outline>
</glyph>
<glyph name="G.wideskinny" format="2">
  <advance width="2340"/>
  <outline>
    <contour>
      <point x="150" y="0" type="line" identifier="7lPhzTnk2Z"/>
      <point x="2229" y="0" type="line" identifier="qJVLZGnkwh"/>
      <point x="2229" y="878" type="line" identifier="uek1NNj7De"/>
      <point x="1455" y="878" type="line" identifier="qcvimxjndX"/>
      <point x="1455" y="677" type="line" identifier="EARaY3Su65"/>
      <point x="1906" y="677" type="line" identifier="4m6dHLVhZq"/>
      <point x="1906" y="256" type="line" identifier="Y750RHTvDj"/>
      <point x="475" y="256" type="line" identifier="L2LsGnXiZ2"/>
      <point x="475" y="1074" type="line" identifier="sUWsr03vF4"/>
      <point x="627" y="1344" type="line" identifier="dbOUe6OhxL"/>
      <point x="2227" y="1344" type="line" identifier="5BjRbcud80"/>
      <point x="2227" y="1600" type="line" identifier="9eJelv8BOw"/>
      <point x="387" y="1600" type="line" identifier="lfZev3ICaC"/>
      <point x="150" y="1126" type="line" identifier="V1EWIdPahq"/>
    </contour>
  </outline>
</glyph>
<glyph name="M.narrow" format="2">
  <advance width="3151"/>
  <outline>
    <contour>
      <point x="2616" y="0" type="line" smooth="yes" identifier="12Pyby1xY2"/>
      <point x="2941" y="0" type="line" smooth="yes" identifier="5LJg4ajoG6"/>
      <point x="2941" y="1600" type="line" smooth="yes" identifier="ZqTZqAY3uY"/>
      <point x="402" y="1600" type="line" smooth="yes" identifier="R4lklfJsHA"/>
      <point x="150" y="1188" type="line" smooth="yes" identifier="7g7f8Wu7K4"/>
      <point x="150" y="0" type="line" smooth="yes" identifier="RTOJW56qXy"/>
      <point x="475" y="0" type="line" identifier="JfSFAkWGZC"/>
      <point x="475" y="1087" type="line" smooth="yes" identifier="WWvGwSpq0g"/>
      <point x="649" y="1337" type="line" smooth="yes" identifier="oee4nqI8Wl"/>
      <point x="1383" y="1337" type="line" identifier="Ljn2lpvpG8"/>
      <point x="1383" y="21" type="line" smooth="yes"/>
      <point x="1707" y="21" type="line"/>
      <point x="1707" y="1337" type="line" identifier="GlWB6PG54Z"/>
      <point x="2616" y="1337" type="line" identifier="iqeTRv7HXg"/>
    </contour>
  </outline>
</glyph>
<glyph name="N.wide" format="2">
  <advance width="2401"/>
  <outline>
    <contour>
      <point x="180" y="0" type="line" identifier="CkwYPPvJLv"/>
      <point x="504" y="0" type="line" identifier="oHTJsN7drZ"/>
      <point x="504" y="1284" type="line" identifier="wfBbYd10Pm"/>
      <point x="652" y="1284" type="line" identifier="MEnBDHq6zU"/>
      <point x="1888" y="0" type="line" identifier="3Nbopwznvn"/>
      <point x="2397" y="0" type="line" identifier="uKfuudIUvA"/>
      <point x="2397" y="1600" type="line" identifier="XRdLFXiM4t"/>
      <point x="2073" y="1600" type="line" identifier="MUSJPjCIXg"/>
      <point x="2073" y="328" type="line" identifier="VILP20cFmq"/>
      <point x="1927" y="328" type="line" identifier="z5b04GDwRN"/>
      <point x="699" y="1600" type="line" identifier="LL64NQ6WBE"/>
      <point x="180" y="1600" type="line" identifier="dzUaaP1sjt"/>
    </contour>
  </outline>
</glyph>
<glyph name="R.wide" format="2">
  <advance width="2359"/>
  <outline>
    <contour>
      <point x="1822" y="0" type="line"/>
      <point x="2146" y="0" type="line"/>
      <point x="1882" y="675" type="line"/>
      <point x="1580" y="674" type="line"/>
    </contour>
    <contour>
      <point x="210" y="0" type="line" identifier="EG08jqU5fb"/>
      <point x="535" y="0" type="line" identifier="osRzIFK2Cu"/>
      <point x="535" y="660" type="line" identifier="hIFVovVRwe"/>
      <point x="2173" y="660" type="line" identifier="Tt6D8zYZmU"/>
      <point x="2173" y="1600" type="line" identifier="6xW04auDFu"/>
      <point x="210" y="1600" type="line" identifier="eETO5GBD5v"/>
    </contour>
    <contour>
      <point x="535" y="923" type="line" identifier="PIBVN1PGv1"/>
      <point x="535" y="1337" type="line" identifier="IZIZQr2gYJ"/>
      <point x="1849" y="1337" type="line" identifier="2c4LCF1E1R"/>
      <point x="1849" y="923" type="line" identifier="1WCnzth1GX"/>
    </contour>
  </outline>
</glyph>
<glyph name="S.wide" format="2">
  <advance width="2322"/>
  <outline>
    <contour>
      <point x="151" y="0" type="line" identifier="09VlJ0BjUX"/>
      <point x="1911" y="0" type="line" identifier="EagWihqFM8"/>
      <point x="2172" y="406" type="line"/>
      <point x="2172" y="928" type="line" identifier="KfNuQA7eZe"/>
      <point x="461" y="928" type="line" identifier="At364YZFEy"/>
      <point x="461" y="1128" type="line"/>
      <point x="621" y="1352" type="line"/>
      <point x="2168" y="1352" type="line" identifier="3ZUkG35meB"/>
      <point x="2168" y="1600" type="line" identifier="SaF9ojRFrW"/>
      <point x="415" y="1600" type="line"/>
      <point x="152" y="1176" type="line"/>
      <point x="152" y="670" type="line" identifier="3sQ8t8BZ6b"/>
      <point x="1861" y="670" type="line" identifier="yiV6OCBLHg"/>
      <point x="1861" y="455" type="line"/>
      <point x="1700" y="251" type="line" identifier="9kdl9SYsn8"/>
      <point x="151" y="251" type="line" identifier="yZDWuX8LLe"/>
    </contour>
  </outline>
</glyph>
<glyph name="S.wideskinny" format="2">
  <advance width="2281"/>
  <outline>
    <contour>
      <point x="151" y="0" type="line" identifier="09VlJ0BjUX"/>
      <point x="1884" y="0" type="line" identifier="EagWihqFM8"/>
      <point x="2131" y="406" type="line"/>
      <point x="2131" y="918" type="line" identifier="KfNuQA7eZe"/>
      <point x="446" y="918" type="line" identifier="At364YZFEy"/>
      <point x="446" y="1123" type="line"/>
      <point x="606" y="1352" type="line"/>
      <point x="2127" y="1352" type="line" identifier="3ZUkG35meB"/>
      <point x="2127" y="1600" type="line" identifier="SaF9ojRFrW"/>
      <point x="401" y="1600" type="line"/>
      <point x="151" y="1176" type="line"/>
      <point x="151" y="681" type="line" identifier="3sQ8t8BZ6b"/>
      <point x="1834" y="681" type="line" identifier="yiV6OCBLHg"/>
      <point x="1834" y="460" type="line"/>
      <point x="1673" y="251" type="line" identifier="9kdl9SYsn8"/>
      <point x="151" y="251" type="line" identifier="yZDWuX8LLe"/>
    </contour>
  </outline>
</glyph>
<glyph name="U.alt" format="2">
  <advance width="2299"/>
  <outline>
    <contour>
      <point x="1835" y="1600" type="line" smooth="yes"/>
      <point x="1835" y="263" type="line"/>
      <point x="450" y="263" type="line" smooth="yes"/>
      <point x="450" y="1600" type="line"/>
      <point x="125" y="1600" type="line" smooth="yes"/>
      <point x="125" y="0" type="line" smooth="yes"/>
      <point x="2160" y="0" type="line" smooth="yes"/>
      <point x="2160" y="1600" type="line" smooth="yes"/>
    </contour>
  </outline>
</glyph>
<glyph name="Y.wideskinny" format="2">
  <advance width="2468"/>
  <outline>
    <contour>
      <point x="220" y="0" type="line"/>
      <point x="2258" y="0" type="line" identifier="oOtn61SmRY"/>
      <point x="2258" y="1600" type="line" identifier="8OglXgblhr"/>
      <point x="1933" y="1600" type="line" identifier="db0bPhBdaU"/>
      <point x="1933" y="911" type="line" identifier="MTAeavIVWY"/>
      <point x="535" y="911" type="line" identifier="lggLiivmLt"/>
      <point x="535" y="1600" type="line" identifier="UPaHY3UudR"/>
      <point x="211" y="1600" type="line" identifier="ZnCDQVdtyD"/>
      <point x="211" y="682" type="line" identifier="uqAJBjDIOT"/>
      <point x="1933" y="682" type="line" identifier="7JgTtdb0jg"/>
      <point x="1933" y="256" type="line"/>
      <point x="220" y="256" type="line"/>
    </contour>
  </outline>
</glyph>
<glyph name="Z.wide" format="2">
  <advance width="2321"/>
  <outline>
    <contour>
      <point x="151" y="0" type="line"/>
      <point x="2167" y="0" type="line" identifier="pzdvPTirLJ"/>
      <point x="2167" y="254" type="line"/>
      <point x="489" y="254" type="line"/>
      <point x="489" y="448" type="line"/>
      <point x="2162" y="1170" type="line" identifier="yyb1NCCI5w"/>
      <point x="2162" y="1600" type="line" identifier="5FogYRSgkk"/>
      <point x="156" y="1600" type="line" identifier="svlFvrau4c"/>
      <point x="156" y="1346" type="line"/>
      <point x="1824" y="1346" type="line"/>
      <point x="1824" y="1237" type="line"/>
      <point x="151" y="526" type="line" identifier="teVKnpBcVb"/>
    </contour>
  </outline>
</glyph>
<glyph name="eight.skinnymiddle" format="2">
  <advance width="2465"/>
  <outline>
    <contour>
      <point x="1800" y="683" type="line"/>
      <point x="1978" y="560" type="line"/>
      <point x="1978" y="254" type="line"/>
      <point x="487" y="254" type="line"/>
      <point x="487" y="556" type="line"/>
      <point x="665" y="683" type="line"/>
    </contour>
    <contour>
      <point x="2107" y="794" type="line"/>
      <point x="2107" y="806" type="line"/>
      <point x="2299" y="962" type="line"/>
      <point x="2299" y="1600" type="line"/>
      <point x="165" y="1600" type="line"/>
      <point x="165" y="962" type="line"/>
      <point x="359" y="806" type="line"/>
      <point x="359" y="794" type="line"/>
      <point x="162" y="634" type="line"/>
      <point x="162" y="0" type="line"/>
      <point x="2303" y="0" type="line"/>
      <point x="2303" y="634" type="line"/>
    </contour>
    <contour>
      <point x="665" y="917" type="line"/>
      <point x="490" y="1038" type="line"/>
      <point x="490" y="1346" type="line"/>
      <point x="1975" y="1346" type="line"/>
      <point x="1975" y="1038" type="line"/>
      <point x="1800" y="917" type="line"/>
    </contour>
  </outline>
</glyph>
<glyph name="five.wide" format="2">
  <advance width="2361"/>
  <outline>
    <contour>
      <point x="152" y="0" type="line" identifier="09VlJ0BjUX"/>
      <point x="2211" y="0" type="line" identifier="EagWihqFM8"/>
      <point x="2211" y="924" type="line" identifier="KfNuQA7eZe"/>
      <point x="475" y="924" type="line" identifier="At364YZFEy"/>
      <point x="475" y="1344" type="line" identifier="BcuLfvaQKC"/>
      <point x="2211" y="1344" type="line" identifier="3ZUkG35meB"/>
      <point x="2211" y="1600" type="line" identifier="SaF9ojRFrW"/>
      <point x="150" y="1600" type="line" identifier="F4sQEYelA8"/>
      <point x="150" y="675" type="line" identifier="3sQ8t8BZ6b"/>
      <point x="1886" y="675" type="line" identifier="yiV6OCBLHg"/>
      <point x="1886" y="256" type="line" identifier="9kdl9SYsn8"/>
      <point x="152" y="256" type="line" identifier="yZDWuX8LLe"/>
    </contour>
  </outline>
</glyph>
<glyph name="five.wideskinny" format="2">
  <advance width="2385"/>
  <outline>
    <contour>
      <point x="164" y="0" type="line" identifier="09VlJ0BjUX"/>
      <point x="2223" y="0" type="line" identifier="EagWihqFM8"/>
      <point x="2223" y="914" type="line" identifier="KfNuQA7eZe"/>
      <point x="487" y="914" type="line" identifier="At364YZFEy"/>
      <point x="487" y="1344" type="line" identifier="BcuLfvaQKC"/>
      <point x="2223" y="1344" type="line" identifier="3ZUkG35meB"/>
      <point x="2223" y="1600" type="line" identifier="SaF9ojRFrW"/>
      <point x="162" y="1600" type="line" identifier="F4sQEYelA8"/>
      <point x="162" y="685" type="line" identifier="3sQ8t8BZ6b"/>
      <point x="1898" y="685" type="line" identifier="yiV6OCBLHg"/>
      <point x="1898" y="256" type="line" identifier="9kdl9SYsn8"/>
      <point x="164" y="256" type="line" identifier="yZDWuX8LLe"/>
    </contour>
  </outline>
</glyph>
<glyph name="nine.wide" format="2">
  <advance width="2324"/>
  <outline>
    <contour>
      <point x="182" y="0" type="line" identifier="oGvEEuxnYv"/>
      <point x="2255" y="0" type="line" identifier="xR3pEHbMJx"/>
      <point x="2255" y="1600" type="line" identifier="uiw6aBUf4P"/>
      <point x="181" y="1600" type="line" identifier="jtYkxiUX6G"/>
      <point x="181" y="675" type="line" identifier="2G5L37c87I"/>
      <point x="1930" y="675" type="line"/>
      <point x="1930" y="256" type="line"/>
      <point x="182" y="256" type="line"/>
    </contour>
    <contour>
      <point x="506" y="925" type="line"/>
      <point x="506" y="1344" type="line"/>
      <point x="1930" y="1344" type="line"/>
      <point x="1930" y="925" type="line"/>
    </contour>
  </outline>
</glyph>
<glyph name="one.narrow" format="2">
  <advance width="1500"/>
  <outline>
    <contour>
      <point x="1289" y="0" type="line" identifier="5nmxQXofSG"/>
      <point x="1289" y="1600" type="line" identifier="4rjIeWbSbx"/>
      <point x="150" y="1600" type="line"/>
      <point x="150" y="1337" type="line"/>
      <point x="965" y="1337" type="line"/>
      <point x="965" y="0" type="line"/>
    </contour>
  </outline>
</glyph>
<glyph name="seven.alt" format="2">
  <advance width="2139"/>
  <outline>
    <contour>
      <point x="146" y="1600" type="line" identifier="jiO9eX9U07"/>
      <point x="2003" y="1600" type="line" identifier="wgpFs1yguc"/>
      <point x="2003" y="0" type="line" identifier="d5Di3vNzni"/>
      <point x="1678" y="0" type="line" identifier="46RrD1WET2"/>
      <point x="1678" y="1337" type="line" identifier="zFXsE8BUYG"/>
      <point x="460" y="1337" type="line" identifier="NQmE31PUns"/>
      <point x="460" y="831" type="line" identifier="qiXxY6YhCq"/>
      <point x="146" y="831" type="line" identifier="7exNZv1XSc"/>
    </contour>
  </outline>
</glyph>
<glyph name="six.wide" format="2">
  <advance width="2313"/>
  <outline>
    <contour>
      <point x="159" y="0" type="line" identifier="uiw6aBUf4P"/>
      <point x="2246" y="0" type="line" identifier="jtYkxiUX6G"/>
      <point x="2246" y="894" type="line" identifier="2G5L37c87I"/>
      <point x="484" y="894" type="line"/>
      <point x="484" y="1170" type="line"/>
      <point x="633" y="1344" type="line"/>
      <point x="2245" y="1344" type="line"/>
      <point x="2245" y="1600" type="line" identifier="oGvEEuxnYv"/>
      <point x="384" y="1600" type="line" identifier="xR3pEHbMJx"/>
      <point x="159" y="1221" type="line" identifier="KnMArb0tv8"/>
    </contour>
    <contour>
      <point x="1921" y="669" type="line"/>
      <point x="1921" y="256" type="line"/>
      <point x="484" y="256" type="line"/>
      <point x="484" y="669" type="line"/>
    </contour>
  </outline>
</glyph>
<glyph name="three.wide" format="2">
  <advance width="2487"/>
  <outline>
    <contour>
      <point x="162" y="0" type="line" identifier="O9abUc1nmN"/>
      <point x="2276" y="0" type="line" identifier="kMJYMTfXCq"/>
      <point x="2276" y="917" type="line" identifier="su2XmdS8e8"/>
      <point x="2093" y="917" type="line" identifier="JQaOzDQqlF"/>
      <point x="2093" y="1600" type="line" identifier="xg8x2Ki40p"/>
      <point x="165" y="1600" type="line" identifier="pE1XSRiy68"/>
      <point x="165" y="1344" type="line" identifier="7ogBYufWpl"/>
      <point x="1768" y="1344" type="line" identifier="RHLvSX2Jv6"/>
      <point x="1768" y="918" type="line" identifier="iic1IBkDqp"/>
      <point x="453" y="918" type="line" identifier="lRLJEhXMlO"/>
      <point x="453" y="669" type="line" identifier="8aKgEELrVU"/>
      <point x="1951" y="669" type="line" identifier="Dm8zjmbhNr"/>
      <point x="1951" y="256" type="line" identifier="xv9CFHiFgB"/>
      <point x="162" y="256" type="line" identifier="YajKQV3MHP"/>
    </contour>
  </outline>
</glyph>
<glyph name="two.wide" format="2">
  <advance width="2275"/>
  <outline>
    <contour>
      <point x="185" y="0" type="line"/>
      <point x="2179" y="0" type="line" identifier="pzdvPTirLJ"/>
      <point x="2178" y="256" type="line"/>
      <point x="510" y="256" type="line"/>
      <point x="510" y="670" type="line"/>
      <point x="2179" y="670" type="line" identifier="yyb1NCCI5w"/>
      <point x="2179" y="1600" type="line" identifier="5FogYRSgkk"/>
      <point x="189" y="1600" type="line" identifier="svlFvrau4c"/>
      <point x="189" y="1344" type="line"/>
      <point x="1854" y="1344" type="line"/>
      <point x="1854" y="919" type="line"/>
      <point x="185" y="919" type="line" identifier="teVKnpBcVb"/>
    </contour>
  </outline>
</glyph>
